<?xml version="1.0" encoding="utf-8"?>
<!-- Generator: Adobe Illustrator 27.5.0, SVG Export Plug-In . SVG Version: 6.00 Build 0)  -->
<svg version="1.1" xmlns="http://www.w3.org/2000/svg" xmlns:xlink="http://www.w3.org/1999/xlink" x="0px" y="0px"
	 viewBox="0 0 500 500" style="enable-background:new 0 0 500 500;" xml:space="preserve">
<g id="Background_Complete">
	<g>
		<rect y="382.398" style="fill:#EBEBEB;" width="500" height="0.25"/>
		<rect x="52.459" y="391.922" style="fill:#EBEBEB;" width="33.122" height="0.25"/>
		<rect x="171.14" y="392.047" style="fill:#EBEBEB;" width="53.86" height="0.25"/>
		<rect x="105.774" y="397.083" style="fill:#EBEBEB;" width="19.192" height="0.25"/>
		<rect x="426.766" y="396.958" style="fill:#EBEBEB;" width="19.235" height="0.25"/>
		<rect x="387.57" y="396.958" style="fill:#EBEBEB;" width="30.292" height="0.25"/>
		<rect x="328.333" y="395.306" style="fill:#EBEBEB;" width="42.556" height="0.25"/>
		<path style="fill:#EBEBEB;" d="M237.014,337.8H43.915c-3.147,0-5.708-2.561-5.708-5.708V60.66c0-3.147,2.561-5.708,5.708-5.708
			h193.099c3.146,0,5.707,2.561,5.707,5.708v271.432C242.721,335.239,240.16,337.8,237.014,337.8z M43.915,55.203
			c-3.01,0-5.458,2.448-5.458,5.458v271.432c0,3.01,2.448,5.458,5.458,5.458h193.099c3.009,0,5.457-2.448,5.457-5.458V60.66
			c0-3.009-2.448-5.458-5.457-5.458H43.915z"/>
		<path style="fill:#EBEBEB;" d="M453.31,337.8H260.212c-3.147,0-5.707-2.561-5.707-5.708V60.66c0-3.147,2.561-5.708,5.707-5.708
			H453.31c3.148,0,5.708,2.561,5.708,5.708v271.432C459.019,335.239,456.458,337.8,453.31,337.8z M260.212,55.203
			c-3.009,0-5.457,2.448-5.457,5.458v271.432c0,3.01,2.448,5.458,5.457,5.458H453.31c3.01,0,5.458-2.448,5.458-5.458V60.66
			c0-3.009-2.448-5.458-5.458-5.458H260.212z"/>
	</g>
	<g>
		<g>
			<g>
				<g>
					<rect x="303.782" y="91.02" style="fill:#E6E6E6;" width="116.098" height="138.621"/>
					<rect x="306.68" y="91.02" style="fill:#F5F5F5;" width="116.098" height="138.621"/>
					
						<rect x="301.262" y="107.485" transform="matrix(-1.836970e-16 1 -1 -1.836970e-16 525.0602 -204.3979)" style="fill:#FFFFFF;" width="126.934" height="105.693"/>
					
						<rect x="353.013" y="159.236" transform="matrix(-1.836970e-16 1 -1 -1.836970e-16 576.8112 -256.1489)" style="fill:#E6E6E6;" width="126.934" height="2.191"/>
					<rect x="308.832" y="193.723" style="fill:#F5F5F5;" width="111.794" height="7.845"/>
				</g>
				<g>
					<path style="fill:#E6E6E6;" d="M428.45,81.348H298.111c-0.441,0-0.801,0.36-0.801,0.801l0,0c0,0.44,0.36,0.801,0.801,0.801
						H428.45c0.44,0,0.801-0.361,0.801-0.801l0,0C429.251,81.708,428.891,81.348,428.45,81.348z"/>
					<circle style="fill:#E6E6E6;" cx="429.251" cy="82.148" r="4.005"/>
					<path style="fill:#E6E6E6;" d="M304.863,86.634L304.863,86.634c-0.595,0-1.081-0.487-1.081-1.081V83.23
						c0-0.595,0.487-1.081,1.081-1.081l0,0c0.595,0,1.081,0.487,1.081,1.081v2.323C305.944,86.147,305.458,86.634,304.863,86.634z"
						/>
					<path style="fill:#E6E6E6;" d="M416.371,86.634L416.371,86.634c-0.595,0-1.081-0.487-1.081-1.081V83.23
						c0-0.595,0.487-1.081,1.081-1.081l0,0c0.595,0,1.081,0.487,1.081,1.081v2.323C417.452,86.147,416.966,86.634,416.371,86.634z"
						/>
				</g>
			</g>
			<rect x="308.832" y="82.148" style="opacity:0.5;fill:#E0E0E0;" width="119.362" height="58.215"/>
			<circle style="fill:#E6E6E6;" cx="317.743" cy="82.148" r="4.005"/>
		</g>
		<g>
			<g>
				<polygon style="fill:#EBEBEB;" points="89.714,244.529 47.359,244.529 51.111,194.961 85.962,194.961 				"/>
				<polygon style="fill:#F5F5F5;" points="80.419,244.529 73.137,244.529 71.595,194.961 78.314,194.961 				"/>
			</g>
			<rect x="66.419" y="244.529" style="fill:#F0F0F0;" width="4.235" height="137.87"/>
			<path style="fill:#F0F0F0;" d="M70.134,280.89h-3.194c-1.553,0-2.823-1.271-2.823-2.823V267.66c0-1.553,1.271-2.823,2.823-2.823
				h3.194c1.553,0,2.823,1.271,2.823,2.823v10.407C72.957,279.619,71.687,280.89,70.134,280.89z"/>
			<path style="fill:#F0F0F0;" d="M70.134,306.61h-3.194c-1.553,0-2.823-1.27-2.823-2.823V293.38c0-1.553,1.271-2.823,2.823-2.823
				h3.194c1.553,0,2.823,1.271,2.823,2.823v10.407C72.957,305.34,71.687,306.61,70.134,306.61z"/>
			<path style="fill:#F0F0F0;" d="M75.243,382.398H61.83l0,0c0-1.579,1.28-2.858,2.858-2.858h7.696
				C73.963,379.54,75.243,380.82,75.243,382.398L75.243,382.398z"/>
			<rect x="66.419" y="244.529" style="fill:#E0E0E0;" width="4.235" height="2.588"/>
		</g>
		<g>
			
				<rect x="96.316" y="86.044" transform="matrix(-1 -1.224647e-16 1.224647e-16 -1 309.6705 289.4439)" style="fill:#F0F0F0;" width="117.039" height="117.355"/>
			<rect x="94.295" y="86.044" style="fill:#E0E0E0;" width="2.021" height="117.355"/>
			
				<rect x="106.648" y="93.456" transform="matrix(-1 -1.224647e-16 1.224647e-16 -1 309.6706 289.4439)" style="fill:#FAFAFA;" width="96.374" height="102.531"/>
			<path style="fill:#F5F5F5;" d="M149.28,173.268h11.11c11.751,0,21.276-9.526,21.276-21.276v-14.539
				c0-11.751-9.526-21.276-21.276-21.276h-11.11c-11.751,0-21.276,9.526-21.276,21.276v14.539
				C128.004,163.742,137.53,173.268,149.28,173.268z"/>
		</g>
		<g>
			<g>
				<rect x="362.968" y="247.444" style="fill:#E6E6E6;" width="44.55" height="134.954"/>
				<polygon style="fill:#FAFAFA;" points="385.77,382.398 407.518,382.398 407.518,363.769 362.968,363.769 				"/>
				<rect x="185.305" y="247.444" style="fill:#E6E6E6;" width="44.55" height="134.954"/>
				<rect x="210.875" y="247.444" style="fill:#FAFAFA;" width="196.644" height="128.542"/>
				<polygon style="fill:#FAFAFA;" points="232.622,382.398 210.875,382.398 210.875,363.769 255.425,363.769 				"/>
				<rect x="227.746" y="295.343" style="fill:#F0F0F0;" width="162.902" height="32.168"/>
				<rect x="227.746" y="334.387" style="fill:#F0F0F0;" width="162.902" height="32.168"/>
				<path style="fill:#FAFAFA;" d="M351.849,298.783h-85.306c-3.438,0-6.225-2.787-6.225-6.225l0,0h97.757l0,0
					C358.075,295.995,355.288,298.783,351.849,298.783z"/>
				<rect x="227.746" y="256.3" style="fill:#F0F0F0;" width="162.902" height="32.168"/>
				<path style="fill:#FAFAFA;" d="M351.849,259.739h-85.306c-3.438,0-6.225-2.787-6.225-6.225l0,0h97.757l0,0
					C358.075,256.952,355.288,259.739,351.849,259.739z"/>
				<path style="fill:#FAFAFA;" d="M351.849,337.826h-85.306c-3.438,0-6.225-2.787-6.225-6.225l0,0h97.757l0,0
					C358.075,335.039,355.288,337.826,351.849,337.826z"/>
			</g>
		</g>
	</g>
</g>
<g id="Background_Simple" style="display:none;">
	<g style="display:inline;">
		<path style="fill:#407BFF;" d="M135.191,345.777c69.598,30.395,84.193-19.115,136.615-51.56
			c41.791-25.866,84.32-18.779,116.074-62.477c27.668-38.075,33.786-104.656,6.411-130.674
			c-33.348-31.695-88.462-27.716-127.833,6.959c-30.001,26.423-48.134,84.943-86.626,93.009
			c-44.29,9.281-69.296-33.394-110.804-7.338C-7.458,241.712,122.646,340.299,135.191,345.777z"/>
		<path style="opacity:0.9;fill:#FFFFFF;" d="M135.191,345.777c69.598,30.395,84.193-19.115,136.615-51.56
			c41.791-25.866,84.32-18.779,116.074-62.477c27.668-38.075,33.786-104.656,6.411-130.674
			c-33.348-31.695-88.462-27.716-127.833,6.959c-30.001,26.423-48.134,84.943-86.626,93.009
			c-44.29,9.281-69.296-33.394-110.804-7.338C-7.458,241.712,122.646,340.299,135.191,345.777z"/>
	</g>
</g>
<g id="Shadow_1_">
	<ellipse id="_x3C_Path_x3E__151_" style="fill:#F5F5F5;" cx="250" cy="416.238" rx="193.889" ry="11.323"/>
</g>
<g id="Complete_list">
	<g>
		<g>
			<path style="fill:#407BFF;" d="M75.553,217.493h132.826l0,0.003h16.412c-9.064,0-16.847-7.348-17.384-16.413l-2.633-44.484H55.54
				l2.633,44.485C58.709,210.149,66.488,217.493,75.553,217.493z"/>
			<path style="opacity:0.6;fill:#FFFFFF;" d="M75.553,217.493h132.826l0,0.003h16.412c-9.064,0-16.847-7.348-17.384-16.413
				l-2.633-44.484H55.54l2.633,44.485C58.709,210.149,66.488,217.493,75.553,217.493z"/>
		</g>
		<path style="fill:#407BFF;" d="M235.847,127.035l0,0.003H103.021c-9.065,0-15.975,7.344-15.438,16.409l3.411,57.633
			c0.536,9.064-6.377,16.413-15.441,16.413h16.412l0-0.003h132.826c9.065,0,15.975-7.344,15.438-16.409l0.369,6.238l-3.78-63.871
			c-0.536-9.064,6.377-16.413,15.441-16.413H235.847z"/>
		<g>
			<path style="fill:#407BFF;" d="M252.26,127.038H119.434l0-0.003h-16.412c9.064,0,16.847,7.348,17.384,16.413l12.823,216.656
				h149.235L269.64,143.448C269.104,134.382,261.325,127.038,252.26,127.038z"/>
			<path style="opacity:0.8;fill:#FFFFFF;" d="M252.26,127.038H119.434l0-0.003h-16.412c9.064,0,16.847,7.348,17.384,16.413
				l12.823,216.656h149.235L269.64,143.448C269.104,134.382,261.325,127.038,252.26,127.038z"/>
		</g>
		<path style="fill:#FFFFFF;" d="M170.663,188.675h-27.69l-1.639-27.685h27.69L170.663,188.675z M146.041,185.42h21.169
			l-1.254-21.174h-21.169L146.041,185.42z"/>
		<path style="fill:#FFFFFF;" d="M174.517,253.786h-27.69l-1.639-27.685h27.69L174.517,253.786z M149.895,250.53h21.169
			l-1.254-21.174h-21.169L149.895,250.53z"/>
		<path style="fill:#FFFFFF;" d="M178.37,318.896h-27.69l-1.639-27.685h27.69L178.37,318.896z M153.748,315.641h21.169
			l-1.254-21.174h-21.169L153.748,315.641z"/>
		<rect x="184.177" y="160.99" style="fill:#FFFFFF;" width="63.663" height="3.255"/>
		<rect x="184.899" y="173.205" style="fill:#FFFFFF;" width="56.185" height="3.255"/>
		<rect x="185.623" y="185.42" style="fill:#FFFFFF;" width="63.663" height="3.255"/>
		<rect x="188.03" y="226.101" style="fill:#FFFFFF;" width="63.663" height="3.255"/>
		<rect x="188.753" y="238.315" style="fill:#FFFFFF;" width="37.367" height="3.255"/>
		<rect x="189.477" y="250.53" style="fill:#FFFFFF;" width="19.292" height="3.255"/>
		<rect x="221.308" y="250.53" style="fill:#FFFFFF;" width="31.832" height="3.255"/>
		<rect x="191.884" y="291.211" style="fill:#FFFFFF;" width="63.664" height="3.255"/>
		<rect x="192.606" y="303.426" style="fill:#FFFFFF;" width="63.664" height="3.255"/>
		<rect x="193.33" y="315.641" style="fill:#FFFFFF;" width="35.208" height="3.255"/>
		<path style="fill:#407BFF;" d="M158.635,182.164c-0.691,0-1.358-0.264-1.862-0.74l-6.801-6.421
			c-1.09-1.029-1.139-2.746-0.11-3.835c1.029-1.091,2.747-1.138,3.835-0.11l4.825,4.555l10.849-11.531
			c1.024-1.091,2.742-1.145,3.835-0.117c1.091,1.027,1.144,2.744,0.116,3.835l-12.711,13.51c-0.493,0.525-1.175,0.831-1.896,0.853
			C158.689,182.164,158.661,182.164,158.635,182.164z"/>
		<path style="fill:#407BFF;" d="M162.488,247.275c-0.691,0-1.358-0.264-1.862-0.74l-6.801-6.421
			c-1.09-1.029-1.139-2.746-0.11-3.835c1.028-1.091,2.746-1.137,3.835-0.11l4.825,4.555l10.849-11.531
			c1.024-1.091,2.742-1.145,3.835-0.117c1.091,1.027,1.144,2.744,0.116,3.835l-12.711,13.51c-0.493,0.525-1.175,0.831-1.895,0.853
			C162.542,247.274,162.515,247.275,162.488,247.275z"/>
		<path style="fill:#407BFF;" d="M166.342,312.385c-0.691,0-1.358-0.264-1.862-0.74l-6.801-6.42c-1.09-1.029-1.139-2.746-0.11-3.835
			c1.028-1.091,2.746-1.138,3.835-0.11l4.825,4.555l10.849-11.531c1.024-1.091,2.742-1.145,3.835-0.117
			c1.091,1.027,1.144,2.744,0.116,3.835l-12.711,13.51c-0.493,0.525-1.175,0.831-1.895,0.853
			C166.395,312.385,166.368,312.385,166.342,312.385z"/>
	</g>
</g>
<g id="Character_1_">
	<g>
		<g>
			
				<rect x="319.036" y="157.972" transform="matrix(0.9711 -0.2388 0.2388 0.9711 -57.191 86.6466)" style="fill:#407BFF;" width="20" height="242.812"/>
			
				<rect x="332.745" y="156.311" transform="matrix(0.9711 -0.2388 0.2388 0.9711 -56.5967 88.2064)" style="opacity:0.2;" width="6.09" height="242.812"/>
			<g>
				<path style="fill:#407BFF;" d="M369.877,413.008l-15.055,3.702c-1.201,0.295-2.425-0.446-2.72-1.646l-2.521-10.254
					c-0.295-1.201,0.446-2.425,1.646-2.72l15.055-3.702c1.201-0.295,2.425,0.446,2.72,1.646l2.521,10.254
					C371.819,411.489,371.078,412.713,369.877,413.008z"/>
				<path style="opacity:0.7;fill:#FFFFFF;" d="M369.877,413.008l-15.055,3.702c-1.201,0.295-2.425-0.446-2.72-1.646l-2.521-10.254
					c-0.295-1.201,0.446-2.425,1.646-2.72l15.055-3.702c1.201-0.295,2.425,0.446,2.72,1.646l2.521,10.254
					C371.819,411.489,371.078,412.713,369.877,413.008z"/>
			</g>
			<path style="fill:#E0E0E0;" d="M369.04,402.25l-18.466,4.541c-1.108,0.273-2.238-0.411-2.511-1.52l-1.654-6.724
				c-0.273-1.108,0.411-2.238,1.52-2.511l18.466-4.541c1.108-0.273,2.238,0.411,2.511,1.52l1.653,6.724
				C370.833,400.847,370.149,401.977,369.04,402.25z"/>
			<polygon style="fill:#E0E0E0;" points="309.759,159.099 290.337,163.875 292.615,147.632 294.078,137.21 300.208,145.765 			"/>
			<polygon style="fill:#407BFF;" points="300.208,145.765 292.615,147.632 294.078,137.21 			"/>
		</g>
		<path style="fill:#FFB573;" d="M359.917,143.682c-0.096,5.959-1.256,17.309,1.907,21.012c0,0-10.854,3.072-18.893,12.284
			c-4.326-7.082,1.316-10.887,1.316-10.887c6.235-2.011,5.85-6.689,4.543-11.007L359.917,143.682z"/>
		<path style="fill:#263238;" d="M341.086,170.889c1.654-6.127-2.98-6.978,4.757-10.045c6.059-2.401,17.508-2.743,20.193-0.812
			c1.498,1.077-0.559,4.862-0.559,4.862L341.086,170.889z"/>
		<path style="fill:#FFB573;" d="M374.681,169.568c0.447,0.724,0.77,1.274,1.125,1.897c0.35,0.604,0.665,1.217,0.985,1.825
			c0.636,1.219,1.236,2.444,1.819,3.678c1.161,2.468,2.169,5.001,3.102,7.563c1.801,5.149,3.241,10.462,3.983,15.957l0.268,2.059
			c0.045,0.291,0.087,0.809,0.121,1.262c0.022,0.437,0.032,0.855,0.033,1.262c-0.004,1.595-0.161,3.012-0.332,4.403
			c-0.342,2.769-0.88,5.379-1.458,7.971c-1.191,5.171-2.672,10.16-4.471,15.129c-0.551,1.523-2.232,2.31-3.755,1.759
			c-1.268-0.459-2.026-1.702-1.926-2.984l0.005-0.052c0.4-5.082,0.869-10.203,1.237-15.202c0.182-2.495,0.324-4.989,0.361-7.353
			c0.013-1.173-0.028-2.33-0.111-3.307l-0.084-0.664l-0.132-0.649l-0.373-1.745c-1.013-4.65-2.531-9.24-4.297-13.735
			c-0.898-2.245-1.873-4.462-2.891-6.655c-0.513-1.094-1.041-2.18-1.593-3.243l-0.833-1.579l-0.79-1.452l-0.14-0.257
			c-1.549-2.847-0.498-6.411,2.349-7.96C369.629,166.002,373.053,166.944,374.681,169.568z"/>
		<path style="fill:#FFB573;" d="M371.959,234.673l0.829-1.379l2.338-3.939l4.299,2.428c0.883,3.989-1.834,7.533-1.834,7.533
			l-1.211,1c-0.899,0.742-2.07,0.699-2.943-0.11l-0.925-0.856C371.327,238.254,371.077,236.14,371.959,234.673z"/>
		<path style="fill:#FFB573;" d="M315.031,232.635l-0.688-2.5c-0.337-1.224-1.591-1.955-2.822-1.644l-3.047,0.769l-1.851,0.456
			c-1.97,0.486-3.537,2.462-3.467,4.373l0.054,1.493c0.051,1.409,0.993,2.429,2.367,2.564l1.852,0.181c0,0,4.477-0.58,7.218-3.88
			C315.065,233.945,315.205,233.264,315.031,232.635z"/>
		<path style="fill:#407BFF;" d="M369.677,165.173c5.255,2.327,10.065,7.881,13.991,18.143
			c-1.263,4.229-14.265,11.164-14.265,11.164S353.179,160.074,369.677,165.173z"/>
		<path style="fill:#407BFF;" d="M326.254,178.315c0.045,3.818-6.265,12.646,1.012,17.763c0.629,7.714,1.482,15.305,3.135,27.951
			h38.831c-3.694-13.975-0.503-23.405,5.421-48.017c1.374-5.706-2.465-11.187-8.247-11.771c-1.545-0.156-3.182-0.286-4.861-0.367
			c-6.524-0.315-11.871-0.524-17.632,0.001c-1.909,0.174-3.885,0.415-5.773,0.679C331.328,165.505,326.174,171.473,326.254,178.315z
			"/>
		<path style="fill:#FFB573;" d="M339.113,174.606c0.082,2.867,0.04,5.607-0.014,8.406c-0.048,2.787-0.18,5.572-0.355,8.367
			c-0.365,5.59-0.946,11.187-2.045,16.922c-0.124,0.708-0.311,1.444-0.477,2.169c-0.176,0.729-0.318,1.44-0.553,2.196l-0.324,1.117
			l-0.163,0.557c-0.068,0.215-0.066,0.275-0.242,0.739c-0.599,1.535-1.168,2.269-1.698,3.013c-1.083,1.441-2.131,2.501-3.187,3.564
			c-1.05,1.051-2.12,2.018-3.201,2.95c-4.315,3.727-8.778,6.983-13.526,9.998c-1.368,0.869-3.182,0.463-4.051-0.905
			c-0.714-1.124-0.567-2.55,0.267-3.504l0.039-0.043c3.568-4.074,7.251-8.115,10.672-12.11c0.846-1.004,1.669-2.009,2.446-2.99
			c0.763-0.973,1.498-1.992,1.958-2.808c0.244-0.377,0.394-0.822,0.257-0.574c-0.042,0.148,0.023-0.129,0.046-0.243l0.092-0.435
			l0.187-0.868c0.139-0.559,0.219-1.198,0.322-1.806c0.096-0.617,0.211-1.215,0.277-1.859c0.677-5.05,0.989-10.364,1.186-15.685
			c0.208-5.307,0.309-10.74,0.342-16l0-0.034c0.02-3.244,2.665-5.857,5.909-5.837C336.45,168.922,339.019,171.462,339.113,174.606z"
			/>
		<path style="fill:#407BFF;" d="M334.835,165.455c-4.795,2.376-9.543,6.96-11.516,17.58c1.249,4.186,18.367,12.258,18.367,12.258
			S351.217,159.332,334.835,165.455z"/>
		<path style="fill:#263238;" d="M335.884,139.857c0.126,0.756-0.175,1.449-0.672,1.548c-0.498,0.098-1.003-0.435-1.13-1.192
			c-0.126-0.756,0.175-1.449,0.672-1.548C335.252,138.567,335.758,139.1,335.884,139.857z"/>
		<path style="fill:#263238;" d="M334.981,138.664l-1.916-0.163C333.065,138.501,334.24,139.735,334.981,138.664z"/>
		<path style="fill:#ED893E;" d="M335.702,140.699c0,0-0.748,3.511-1.908,5.363c1.16,0.733,2.798-0.03,2.798-0.03L335.702,140.699z"
			/>
		<path style="fill:#263238;" d="M333.9,134.7c-0.113,0.001-0.224-0.039-0.31-0.121c-0.177-0.171-0.178-0.458-0.002-0.64
			c1.767-1.832,3.82-1.496,3.907-1.48c0.245,0.043,0.403,0.278,0.352,0.524c-0.051,0.246-0.29,0.41-0.535,0.369
			c-0.08-0.014-1.677-0.251-3.081,1.205C334.14,134.65,334.02,134.698,333.9,134.7z"/>
		<path style="fill:#FFB573;" d="M360.628,132.412c0.987,9.401,1.603,13.353-2.232,19.036c-5.768,8.548-17.361,8.015-21.096-0.825
			c-3.362-7.957-4.411-21.994,3.946-27.463C349.479,117.771,359.641,123.011,360.628,132.412z"/>
		<path style="fill:#263238;" d="M343.526,139.278c-6-1.056-7.444-7.945-5.222-10.945c-10.111,0.445-16.922-10.866-6-17.31
			c10.923-6.444,20.556,3.532,19.778,7.31c13.444-1.222,21.333,9.847,14,18.081c9.667,1.567,24.152,12.468,13.52,23.916
			c14.369,2.114,15.924,47.114-23.187,39.114c-41.247-8.437-5.444-44.333-5.444-44.333S340.549,152.166,343.526,139.278z"/>
		<path style="fill:#263238;" d="M381.841,163.262l-0.852-0.524c3.628-5.899,4.229-11.265,1.783-15.948
			c-3.152-6.037-10.797-9.538-16.72-9.876l0.057-0.999c6.205,0.355,14.226,4.045,17.55,10.412
			C386.241,151.273,385.612,157.129,381.841,163.262z"/>
		<path style="fill:#FFFFFF;" d="M370.466,137.422c3.458-0.571,1.82-6.198-0.718-7.697c-2.537-1.499-14.708,0.94-13.366,4.812
			C357.724,138.409,365.836,138.187,370.466,137.422z"/>
		<path style="fill:#407BFF;" d="M371.093,136.015c3.441-0.666,2.055-5.228-0.522-6.657c-2.578-1.429-13.212-0.37-11.764,3.463
			C360.255,136.655,366.486,136.906,371.093,136.015z"/>
		<path style="fill:#263238;" d="M335.055,129.472c-2.188,0-4.409-0.775-6.335-2.271c-2.867-2.227-4.451-5.566-4.036-8.506
			c0.264-1.871,1.436-4.445,5.518-6.076l0.371,0.929c-2.879,1.15-4.573,2.978-4.898,5.287c-0.366,2.591,1.07,5.565,3.659,7.576
			c2.673,2.077,5.957,2.621,8.78,1.46l0.381,0.925C337.391,129.249,336.228,129.472,335.055,129.472z"/>
		<path style="fill:#FFB573;" d="M345.901,140.385c-0.45,2.456-0.594,3.503-1.872,4.66c-1.924,1.74-4.519,0.747-4.733-1.77
			c-0.193-2.266,0.576-5.901,2.866-6.669C344.418,135.849,346.351,137.929,345.901,140.385z"/>
		<path style="fill:#FFFFFF;" d="M340.377,148.207l-0.807-1.443c-0.068-0.122-0.068-0.271,0-0.393l0.807-1.443
			c0.154-0.275,0.55-0.275,0.704,0l0.807,1.443c0.068,0.122,0.068,0.271,0,0.393l-0.807,1.443
			C340.927,148.482,340.531,148.482,340.377,148.207z"/>
		<path style="fill:#FFB573;" d="M330.401,224.03c0,0-1.372,50.137-3.199,83.12c-1.938,30.267-4.43,101.057-4.43,101.057
			l7.643,0.398c0,0,16.928-59.562,16.21-95.556c19.866-50.339,12.722-87.51,12.722-87.51L330.401,224.03z"/>
		<g>
			<path style="fill:#263238;" d="M323.343,405.04c-0.344-0.242-0.805-0.255-1.17-0.025c-2.591,1.634-5.442,3.904-12.695,4.225
				c-5.08,0.224-3.824,3.02,3.444,3.927c8.546,1.066,10.378,2.819,13.139,3.515c2.661,0.671,4.949-1.413,4.901-7.207
				c-0.003-0.403-0.267-0.763-0.644-0.911C326.414,407.032,324.26,405.687,323.343,405.04z"/>
		</g>
		<path style="fill:#FFB573;" d="M340.549,224.03c0,0,13.991,59.336,22.114,86.948c8.531,28.999,15.283,95.18,15.236,97.376h6.618
			c0,0,8.549-53.643-2.045-97.404c-0.974-70.976-13.239-86.921-13.239-86.921H340.549z"/>
		<g>
			<path style="fill:#263238;" d="M377.725,405.957c-0.373-0.151-0.774-0.051-1.014,0.262c-1.708,2.218-2.948,4.677-8.003,6.837
				c-4.175,1.784-1.869,4.228,4.673,3.33c7.692-1.056,7.796,0.195,10.393,0.195c2.503,0,3.807-2.581,1.92-8.187
				c-0.131-0.39-0.473-0.675-0.844-0.726C381.002,407.137,378.72,406.36,377.725,405.957z"/>
		</g>
		<path style="fill:#263238;" d="M330.401,224.03c0,0-6.606,43.939-5.676,103.97c33.76,0,61.578-9.5,61.578-9.5
			s0.297-77.816-17.071-94.47C359.203,221.33,330.629,223.124,330.401,224.03z"/>
		<path style="opacity:0.2;fill:#FFFFFF;" d="M331.17,319.472c-0.133,0-0.243-0.104-0.25-0.238
			c-1.868-38.351,2.666-92.491,2.712-93.034c0.012-0.137,0.117-0.243,0.271-0.228c0.138,0.012,0.239,0.133,0.228,0.27
			c-0.046,0.542-4.577,54.649-2.71,92.967c0.007,0.138-0.1,0.255-0.238,0.262C331.178,319.472,331.174,319.472,331.17,319.472z"/>
		<polygon style="opacity:0.2;" points="357.304,281.117 362.987,250.976 365.283,258.189 		"/>
	</g>
</g>
</svg>
